<?xml version="1.0" standalone="no"?><svg xmlns="http://www.w3.org/2000/svg" viewBox="0 0 1440 320"><path fill="#5000ca" fill-opacity="1" d="M0,256L18.5,218.7C36.9,181,74,107,111,74.7C147.7,43,185,53,222,85.3C258.5,117,295,171,332,208C369.2,245,406,267,443,250.7C480,235,517,181,554,170.7C590.8,160,628,192,665,208C701.5,224,738,224,775,229.3C812.3,235,849,245,886,250.7C923.1,256,960,256,997,229.3C1033.8,203,1071,149,1108,128C1144.6,107,1182,117,1218,138.7C1255.4,160,1292,192,1329,213.3C1366.2,235,1403,245,1422,250.7L1440,256L1440,0L1421.5,0C1403.1,0,1366,0,1329,0C1292.3,0,1255,0,1218,0C1181.5,0,1145,0,1108,0C1070.8,0,1034,0,997,0C960,0,923,0,886,0C849.2,0,812,0,775,0C738.5,0,702,0,665,0C627.7,0,591,0,554,0C516.9,0,480,0,443,0C406.2,0,369,0,332,0C295.4,0,258,0,222,0C184.6,0,148,0,111,0C73.8,0,37,0,18,0L0,0Z"></path></svg>